HIERARCHY
ROOT Hips
{
  OFFSET 0 0 0
  CHANNELS 6 Xposition Yposition Zposition Zrotation Xrotation Yrotation
  JOINT LeftHip
  {
    OFFSET 3.43 0 0
    CHANNELS 3 Zrotation Xrotation Yrotation
    JOINT LeftKnee
    {
      OFFSET 5.68434e-014 -18.47 -7.10543e-014
      CHANNELS 3 Zrotation Xrotation Yrotation
      JOINT LeftAnkle
      {
        OFFSET 1.77636e-012 -17.95 2.41585e-013
        CHANNELS 3 Zrotation Xrotation Yrotation
        End Site
        {
          OFFSET 0 -3.12 0
        }
      }
    }
  }
  JOINT RightHip
  {
    OFFSET -3.43 -2.13163e-014 -1.42109e-014
    CHANNELS 3 Zrotation Xrotation Yrotation
    JOINT RightKnee
    {
      OFFSET 5.68434e-014 -18.47 -5.68434e-014
      CHANNELS 3 Zrotation Xrotation Yrotation
      JOINT RightAnkle
      {
        OFFSET 3.41061e-012 -17.95 1.36424e-012
        CHANNELS 3 Zrotation Xrotation Yrotation
        End Site
        {
          OFFSET 0 -3.12 0
        }
      }
    }
  }
  JOINT Chest
  {
    OFFSET 7.10543e-014 4.57 -1.42109e-013
    CHANNELS 3 Zrotation Xrotation Yrotation
    JOINT Chest2
    {
      OFFSET 0 6.57 0
      CHANNELS 3 Zrotation Xrotation Yrotation
      JOINT LeftCollar
      {
        OFFSET 1.06 4.19 1.76
        CHANNELS 3 Zrotation Xrotation Yrotation
        JOINT LeftShoulder
        {
          OFFSET 5.81 1.42109e-014 4.26326e-014
          CHANNELS 3 Zrotation Xrotation Yrotation
          JOINT LeftElbow
          {
            OFFSET 5.82645e-013 -12.08 -4.83169e-013
            CHANNELS 3 Zrotation Xrotation Yrotation
            JOINT LeftWrist
            {
              OFFSET -2.60059e-012 -9.82 -9.43601e-012
              CHANNELS 3 Zrotation Xrotation Yrotation
              End Site
              {
                OFFSET 0 -7.37 0
              }
            }
          }
        }
      }
      JOINT RightCollar
      {
        OFFSET -1.06 4.19 1.76
        CHANNELS 3 Zrotation Xrotation Yrotation
        JOINT RightShoulder
        {
          OFFSET -6.06 2.84217e-014 -4.26326e-014
          CHANNELS 3 Zrotation Xrotation Yrotation
          JOINT RightElbow
          {
            OFFSET 3.97904e-013 -11.08 -3.2685e-013
            CHANNELS 3 Zrotation Xrotation Yrotation
            JOINT RightWrist
            {
              OFFSET 1.00329e-011 -9.82 1.11697e-011
              CHANNELS 3 Zrotation Xrotation Yrotation
              End Site
              {
                OFFSET 0 -7.14001 0
              }
            }
          }
        }
      }
      JOINT Neck
      {
        OFFSET -1.06581e-014 4.05 2.84217e-014
        CHANNELS 3 Zrotation Xrotation Yrotation
        JOINT Head
        {
          OFFSET -1.13687e-013 5.19 -1.42109e-014
          CHANNELS 3 Zrotation Xrotation Yrotation
          End Site
          {
            OFFSET 0 4.14001 0
          }
        }
      }
    }
  }
}
MOTION
Frames:	7
Frame Time:	0.0333333
-23.6996 38.8474 5.1628 -9.85648 7.76276 -135.255 -8.06737 1.62915 -7.93611 0.984265 26.0888 9.78772 1.3214 -14.9025 0.17283 -1.13646 -9.17862 -0.695484 -2.98196 62.4487 -4.99339 -0.196376 -6.09534 -0.0104555 -1.10927 3.64671 -2.07309 -1.5285 5.37262 -2.71903 9.53541 0.0598762 1.51195 19.7726 -35.1871 -26.1937 -71.2024 -64.9678 -134.312 0.835898 -11.7388 0.0859322 -6.99993 0.344314 -3.36331 -17.4036 -11.6421 18.3133 125.695 -76.4436 -178.72 -2.4264 -15.0301 -0.320138 -0.161896 0.941356 3.46909 -1.85098 21.3789 5.90505 
-24.2874 38.9236 4.4705 -9.23832 7.66301 -134.757 -7.24451 3.13678 -7.51421 0.846218 24.8984 8.8765 1.60242 -15.7585 0.221776 -0.821076 -11.8903 -0.148874 -2.74771 56.2187 -6.85449 -0.907908 -7.77184 -0.0616721 -0.89273 3.704 -2.33172 -1.29228 5.43683 -3.08839 9.48512 0.0551453 1.40813 19.7362 -35.4082 -26.2156 -71.7044 -65.1645 -134.824 0.824795 -11.6953 0.0844741 -6.89809 0.342435 -3.43034 -17.4837 -11.646 18.2737 126.957 -76.1778 -178.087 -2.30621 -14.7914 -0.299388 -0.0576846 0.826882 3.27606 -1.71416 21.2405 5.70862 
-24.8638 38.9687 3.77104 -8.65478 7.49404 -134.264 -6.5828 4.60624 -7.26743 0.908695 23.7428 8.05779 1.70369 -16.5964 0.248506 -0.8234 -13.8138 0.263279 -2.19043 48.3192 -8.59666 -1.0967 -8.75112 -0.0839181 -0.727721 3.73313 -2.56804 -1.11001 5.45817 -3.42652 9.47449 0.0512155 1.3109 19.6729 -35.6034 -26.2587 -72.1756 -65.3227 -135.222 0.753343 -11.6543 0.0768838 -6.7911 0.340206 -3.4927 -17.5312 -11.5668 18.2393 128.378 -75.858 -177.245 -2.16187 -14.6362 -0.277668 0.0437982 0.720181 3.07647 -1.52554 21.0998 5.47609 
-25.4439 38.9721 3.05099 -8.18769 7.21203 -133.817 -6.10391 6.0614 -7.11046 1.01419 22.6675 7.38586 1.70364 -17.492 0.262112 -1.15437 -14.6503 0.61313 -1.69114 38.3218 -9.60521 -0.598248 -7.95159 -0.04158 -0.686752 3.73214 -2.76637 -1.00534 5.43748 -3.71089 9.50348 0.0483794 1.23034 19.5981 -35.739 -26.3086 -72.5941 -65.4402 -135.473 0.626324 -11.6134 0.0636942 -6.68387 0.337735 -3.54703 -17.553 -11.402 18.2191 129.75 -75.4913 -176.373 -1.96351 -14.5981 -0.251523 0.127455 0.620684 2.87618 -1.2853 20.9491 5.20368 
-26.0434 38.9391 2.28967 -7.7928 6.90081 -133.45 -5.61693 7.59468 -6.90537 0.948269 21.5917 6.91582 1.7214 -18.4684 0.279881 -1.70943 -14.7713 0.740644 -1.08147 28.1108 -10.1004 0.693066 -7.60508 0.0460648 -0.68004 3.7015 -2.92626 -0.979624 5.377 -3.92864 9.56064 0.0466914 1.17252 19.522 -35.7577 -26.3499 -72.9515 -65.5154 -135.563 0.451528 -11.5687 0.0457402 -6.58116 0.335164 -3.59121 -17.5575 -11.1415 18.2164 130.931 -75.087 -175.601 -1.71835 -14.6836 -0.221416 0.178698 0.533262 2.67439 -1.00065 20.7872 4.88479 
-26.6763 38.8706 1.46629 -7.50131 6.56142 -133.177 -5.11002 9.35732 -6.63883 0.688258 20.3453 6.56859 1.78168 -19.4814 0.305876 -2.21537 -14.251 0.855272 -0.641778 18.5013 -10.2855 2.6535 -7.13432 0.165447 -0.741399 3.63645 -3.04512 -1.01077 5.27496 -4.07856 9.62517 0.0460512 1.14029 19.4859 -35.6167 -26.354 -73.2551 -65.5504 -135.484 0.237176 -11.517 0.0239178 -6.48717 0.332646 -3.62423 -17.5912 -10.7564 18.221 131.82 -74.6495 -175.035 -1.46453 -14.8752 -0.191197 0.185789 0.469435 2.46304 -0.684209 20.6162 4.50988 
-27.3444 38.7394 0.569379 -7.19047 6.33361 -132.973 -4.47838 11.1907 -6.31382 0.362387 19.3945 6.13487 1.85807 -20.8035 0.341107 -2.30963 -14.0749 1.15809 -0.534619 12.2396 -10.5134 4.7259 -7.12443 0.294366 -0.71128 3.55454 -3.16533 -1.06379 5.14432 -4.16927 9.67163 0.0462818 1.13459 19.5872 -35.3307 -26.2709 -73.5012 -65.5551 -135.221 -0.000796553 -11.4546 -7.98902e-005 -6.40536 0.330326 -3.64608 -17.7211 -10.2268 18.2142 132.39 -74.1808 -174.723 -1.24837 -15.1401 -0.16591 0.141654 0.445073 2.22826 -0.352327 20.4376 4.06799 
